<svg width="22" height="22" viewBox="0 0 22 22" fill="none" xmlns="http://www.w3.org/2000/svg">
<path d="M11.0047 6.01919C8.02341 6.01919 5.61873 8.42388 5.61873 11.4051C5.61873 14.3864 8.02341 16.7911 11.0047 16.7911C13.9859 16.7911 16.3906 14.3864 16.3906 11.4051C16.3906 8.42388 13.9859 6.01919 11.0047 6.01919ZM11.0047 14.9067C9.0781 14.9067 7.5031 13.3364 7.5031 11.4051C7.5031 9.47388 9.07341 7.90356 11.0047 7.90356C12.9359 7.90356 14.5062 9.47388 14.5062 11.4051C14.5062 13.3364 12.9312 14.9067 11.0047 14.9067ZM17.8672 5.79888C17.8672 6.49731 17.3047 7.05513 16.6109 7.05513C15.9125 7.05513 15.3547 6.49263 15.3547 5.79888C15.3547 5.10513 15.9172 4.54263 16.6109 4.54263C17.3047 4.54263 17.8672 5.10513 17.8672 5.79888ZM21.4344 7.07388C21.3547 5.39106 20.9703 3.90044 19.7375 2.67231C18.5094 1.44419 17.0187 1.05981 15.3359 0.975439C13.6015 0.877002 8.4031 0.877002 6.66873 0.975439C4.9906 1.05513 3.49998 1.4395 2.26716 2.66763C1.03435 3.89575 0.654663 5.38638 0.570288 7.06919C0.471851 8.80356 0.471851 14.002 0.570288 15.7364C0.649976 17.4192 1.03435 18.9098 2.26716 20.1379C3.49998 21.3661 4.98591 21.7504 6.66873 21.8348C8.4031 21.9333 13.6015 21.9333 15.3359 21.8348C17.0187 21.7551 18.5094 21.3708 19.7375 20.1379C20.9656 18.9098 21.35 17.4192 21.4344 15.7364C21.5328 14.002 21.5328 8.80825 21.4344 7.07388ZM19.1937 17.5973C18.8281 18.5161 18.1203 19.2239 17.1969 19.5942C15.814 20.1426 12.5328 20.0161 11.0047 20.0161C9.47654 20.0161 6.1906 20.1379 4.81248 19.5942C3.89373 19.2286 3.18591 18.5208 2.8156 17.5973C2.26716 16.2145 2.39373 12.9333 2.39373 11.4051C2.39373 9.877 2.27185 6.59106 2.8156 5.21294C3.18123 4.29419 3.88904 3.58638 4.81248 3.21606C6.19529 2.66763 9.47654 2.79419 11.0047 2.79419C12.5328 2.79419 15.8187 2.67231 17.1969 3.21606C18.1156 3.58169 18.8234 4.2895 19.1937 5.21294C19.7422 6.59575 19.6156 9.877 19.6156 11.4051C19.6156 12.9333 19.7422 16.2192 19.1937 17.5973Z" fill="white"/>
</svg>
