<svg width="24" height="25" viewBox="0 0 24 25" fill="none" xmlns="http://www.w3.org/2000/svg">
<path d="M13.5 0.409912H16.47C16.686 1.48241 17.28 2.83541 18.3225 4.17791C19.3425 5.49341 20.6955 6.40991 22.5 6.40991V9.40991C19.8705 9.40991 17.895 8.18891 16.5 6.66641V16.9099C16.5 18.3933 16.0601 19.8433 15.236 21.0767C14.4119 22.3101 13.2406 23.2714 11.8701 23.839C10.4997 24.4067 8.99168 24.5552 7.53683 24.2658C6.08197 23.9764 4.7456 23.2621 3.6967 22.2132C2.64781 21.1643 1.9335 19.8279 1.64411 18.3731C1.35472 16.9182 1.50325 15.4102 2.07091 14.0398C2.63856 12.6693 3.59986 11.498 4.83323 10.6739C6.0666 9.84978 7.51664 9.40991 9 9.40991V12.4099C8.10999 12.4099 7.23996 12.6738 6.49994 13.1683C5.75992 13.6628 5.18314 14.3656 4.84255 15.1878C4.50195 16.0101 4.41284 16.9149 4.58647 17.7878C4.7601 18.6607 5.18869 19.4626 5.81802 20.0919C6.44736 20.7212 7.24918 21.1498 8.1221 21.3234C8.99501 21.4971 9.89981 21.408 10.7221 21.0674C11.5443 20.7268 12.2472 20.15 12.7416 19.41C13.2361 18.67 13.5 17.7999 13.5 16.9099V0.409912Z" fill="white"/>
</svg>
