<svg width="24" height="25" viewBox="0 0 24 25" fill="none" xmlns="http://www.w3.org/2000/svg">
<path d="M22.9023 6.91337C22.6406 5.92795 21.8695 5.15187 20.8904 4.8885C19.1159 4.40991 12 4.40991 12 4.40991C12 4.40991 4.88415 4.40991 3.10953 4.8885C2.13048 5.15191 1.3594 5.92795 1.09769 6.91337C0.622192 8.6995 0.622192 12.4261 0.622192 12.4261C0.622192 12.4261 0.622192 16.1527 1.09769 17.9388C1.3594 18.9242 2.13048 19.668 3.10953 19.9313C4.88415 20.4099 12 20.4099 12 20.4099C12 20.4099 19.1158 20.4099 20.8904 19.9313C21.8695 19.668 22.6406 18.9242 22.9023 17.9388C23.3778 16.1527 23.3778 12.4261 23.3778 12.4261C23.3778 12.4261 23.3778 8.6995 22.9023 6.91337ZM9.67269 15.8095V9.04262L15.6202 12.4262L9.67269 15.8095Z" fill="white"/>
</svg>
